<?xml version="1.0" encoding="utf-8"?>
<!-- Generator: Adobe Illustrator 16.0.3, SVG Export Plug-In . SVG Version: 6.00 Build 0)  -->
<!DOCTYPE svg PUBLIC "-//W3C//DTD SVG 1.1//EN" "http://www.w3.org/Graphics/SVG/1.1/DTD/svg11.dtd">
<svg version="1.1" xmlns="http://www.w3.org/2000/svg" xmlns:xlink="http://www.w3.org/1999/xlink" x="0px" y="0px"
	 width="113.39px" height="113.39px" viewBox="0 0 113.39 113.39" enable-background="new 0 0 113.39 113.39" xml:space="preserve">
<g id="Layer_1">
	<rect fill="#20BA17" width="113.386" height="113.386"/>
</g>
<g id="Layer_2">
	<g>
		<path fill="#FFFFFF" d="M88.722,26.313c-0.708-1.357-1.733-2.543-2.938-3.483c-0.155-0.119-1.328-0.819-2.33-1.346
			c-0.333,2.021-1.447,3.874-2.899,5.331c-1.558,1.56-3.473,2.711-5.436,3.718c-0.271,0.141-2.198,1.047-2.476,1.182
			c-10.256,4.567-22.02,5.631-32.977,3.142c-1.157-0.303-3.954-1.045-5.086-1.432c7.245,0.689,14.557,1.157,21.788,0.329
			c7.23-0.828,14.424-3.013,20.354-7.232c2.784-1.98,5.238-5.131,3.489-8.665c-1.291-2.611-4.475-4.17-7.15-4.94
			c-8.718-2.508-20.234-1.817-26.483,5.602c-1.147,1.351-1.904,2.726-2.414,3.917c-0.483,1.199-0.91,1.111-0.545-0.188
			c0.219-0.757,0.539-1.613,0.972-2.504c-2.022,1.273-3.98,2.373-6.439,2.754c-2.669,0.417-5.374,0.19-8.061,0.314
			c-2.089,0.095-4.601,0.49-5.847,2.385c-0.695,1.057-0.825,2.407-0.615,3.656c0.461,2.738,2.049,5.304,4.252,6.975
			c1.986,1.508,8.602,2.794,11.786,3.099v1.661v3.149v0.355v4.281c14.439-4.603,28.958-1.115,32.977,0.032v-4.662
			c-2.834-0.855-16.207-4.436-30.08-0.86c11.183-3.962,26.39-1.908,30.08-0.855v-5.835v-2.434l1.065,3.496
			c1.153,0.183,3.871,0.439,4.14,0.439c1.601,0.002,3.205-0.012,4.784-0.297c1.849-0.333,3.673-1.046,5.048-2.328
			C90.145,32.775,90.203,29.169,88.722,26.313z"/>
		<path fill="#FFFFFF" d="M55.951,46.984c7.098,0,13.114,0.861,15.273,2.054c-2.571-0.519-6.266-0.848-10.389-0.848
			c-7.768,0-14.064,1.161-14.064,2.588c0,0.946,2.767,1.771,6.881,2.221c-7.82-0.209-13.839-1.467-13.839-2.99
			C39.812,48.339,47.038,46.984,55.951,46.984z"/>
	</g>
	<path d="M66.342,60.443c-2.24-1.55-8.383-3.104-9.646,0.151c-1.263-3.255-7.408-1.701-9.645-0.151
		c-2.221,1.539-5.784-0.48-5.784-0.48s1.534,2.504,4.698,4.502c3.622,2.281,9.3,3.958,10.595-0.347
		c0.054-0.173,0.094-0.339,0.136-0.506c0.04,0.167,0.081,0.333,0.134,0.506c1.297,4.305,6.974,2.628,10.597,0.347
		c3.164-1.998,4.697-4.502,4.697-4.502S68.561,61.982,66.342,60.443z"/>
	<g>
		<g>
			<path fill="#FFFFFF" d="M52.832,91.242l-8.337,6.516c-1.165,0.977-1.449,2.581-0.747,3.749l-0.014,0.012
				c0.065,0.108,0.135,0.232,0.222,0.334c0.985,1.174,2.844,1.256,4.127,0.179l8.021-7.22C55.02,93.546,53.915,92.315,52.832,91.242
				z"/>
			<path fill="#FFFFFF" d="M90.132,68.024l-13.77,11.389l-0.944-1.125l13.484-11.731l-0.493-0.588L74.496,77.186L73.9,76.481
				l-0.133-0.163l-0.219-0.258l13.485-11.731l-0.442-0.526l-13.93,11.199l-0.939-1.12l13.58-11.615l-0.447-0.538
				c-3.592,2.171-10.147,6.863-13.306,9.511c-3.872,3.251-3.165,3.996-2.155,7.06l-12.15,9.495l3.427,2.906l10.898-9.81
				c2.838,1.524,3.453,2.354,7.328-0.896c3.154-2.649,8.836-8.23,11.667-11.458L90.132,68.024z"/>
		</g>
		<g>
			<path fill="#FFFFFF" d="M27.173,63.946L67.4,97.7c1.085,0.91,1.407,2.345,0.896,3.476l0.013,0.009
				c-0.101,0.22-0.213,0.425-0.373,0.617c-0.985,1.172-2.969,1.385-4.128,0.179c-3.489-3.628-9.862-12.775-14.113-14.382
				c-2.432-0.937-7.834-1.385-13.481-6.122c-10.506-8.815-12.191-14.413-11.633-16.867c0.008-0.024,0.02-0.05,0.035-0.087
				C24.921,63.512,26.25,63.169,27.173,63.946z"/>
		</g>
	</g>
</g>
</svg>
