<svg xmlns="http://www.w3.org/2000/svg" viewBox="0 0 16 16"><defs><style>.cls-1{fill:#22373c;}.cls-2{fill:#c79d67;}</style></defs><g id="Layer_2" data-name="Layer 2"><g id="Favicon"><circle class="cls-1" cx="8" cy="8" r="8"/><path class="cls-2" d="M8.29,1.33V3.12h0A5.26,5.26,0,0,1,11.7,4.61a5,5,0,0,1,1.53,3.6v.28h-.51a4.87,4.87,0,0,1,0,1.08,4.55,4.55,0,0,1-.41,1.49l-.1.24L12,11.21l-.26-.1a4.39,4.39,0,0,1-.18.86A4.6,4.6,0,0,1,11,13.13l-.14.22-.24-.11a8,8,0,0,1-.7-.41,4.59,4.59,0,0,1-.66.84,6.39,6.39,0,0,1-1.12.9l-.16.1-.16-.1a6.39,6.39,0,0,1-1.12-.9,4.59,4.59,0,0,1-.66-.84,8,8,0,0,1-.7.41l-.24.11L5,13.13A4.6,4.6,0,0,1,4.46,12a4.39,4.39,0,0,1-.18-.86l-.26.1-.25.09-.11-.24a4.79,4.79,0,0,1-.4-1.49,4.87,4.87,0,0,1,0-1.08H2.77V8.21A5,5,0,0,1,4.3,4.61,5.26,5.26,0,0,1,7.71,3.13h0V1.33ZM6.51,12.48a4.22,4.22,0,0,0,.63.81A5.16,5.16,0,0,0,8,14a5.16,5.16,0,0,0,.86-.71,4.22,4.22,0,0,0,.63-.81l-.17-.14a5.71,5.71,0,0,1-.83-1l-.34.22L8,11.69l-.15-.09-.34-.22a5.71,5.71,0,0,1-.83,1l-.17.14ZM9.91,10a4.77,4.77,0,0,1-.66.79L8.94,11a4.88,4.88,0,0,0,1.72,1.58,5.05,5.05,0,0,0,.34-.8,4.39,4.39,0,0,0,.16-1,5.61,5.61,0,0,1-1.15-.8.81.81,0,0,1-.1-.09ZM7.06,11l-.31-.27A4.77,4.77,0,0,1,6.09,10l-.1.09a5.61,5.61,0,0,1-1.15.8,3.86,3.86,0,0,0,.16,1,5.05,5.05,0,0,0,.34.8,4.68,4.68,0,0,0,1-.68,4.65,4.65,0,0,0,.77-.9ZM6.49,9.55a4.5,4.5,0,0,0,.67.81A5.88,5.88,0,0,0,8,11a5.88,5.88,0,0,0,.84-.67,4.5,4.5,0,0,0,.67-.81,4.75,4.75,0,0,1-.66-1,6.16,6.16,0,0,1-.69.51L8,9.22l-.16-.11a6.16,6.16,0,0,1-.69-.51,4.75,4.75,0,0,1-.66,1ZM9.83,7.49a4.32,4.32,0,0,1-.55.7,4.72,4.72,0,0,0,1.11,1.46,5.41,5.41,0,0,0,1.52.94,4.08,4.08,0,0,0,.26-1.07,4.41,4.41,0,0,0,0-1.09,5.27,5.27,0,0,1-2.3-.94Zm-3.11.7a4.32,4.32,0,0,1-.55-.7,5.27,5.27,0,0,1-2.3.94,4.41,4.41,0,0,0,0,1.09,4.08,4.08,0,0,0,.26,1.07,5.41,5.41,0,0,0,1.52-.94A4.72,4.72,0,0,0,6.72,8.19ZM6.61,7.13a4.12,4.12,0,0,0,.56.72,5.88,5.88,0,0,0,.83.7,5.88,5.88,0,0,0,.83-.7,4.12,4.12,0,0,0,.56-.72L9.25,7A5,5,0,0,1,8,5.07,5,5,0,0,1,6.75,7l-.14.13Zm-3.26.79a4.69,4.69,0,0,0,3-1.32A4.4,4.4,0,0,0,7.7,3.69,4.64,4.64,0,0,0,4.71,5,4.43,4.43,0,0,0,3.35,7.92ZM9.65,6.6a4.69,4.69,0,0,0,3,1.32A4.43,4.43,0,0,0,11.29,5a4.66,4.66,0,0,0-3-1.32A4.4,4.4,0,0,0,9.65,6.6Z"/></g></g></svg>