<?xml version="1.0" encoding="UTF-8" standalone="no"?>
<!-- Created with Inkscape (http://www.inkscape.org/) -->

<svg
   width="159.30515mm"
   height="96.917mm"
   viewBox="0 0 159.30515 96.917"
   version="1.1"
   id="svg5"
   inkscape:version="1.1.1 (3bf5ae0d25, 2021-09-20)"
   sodipodi:docname="lau_sign.svg"
   xmlns:inkscape="http://www.inkscape.org/namespaces/inkscape"
   xmlns:sodipodi="http://sodipodi.sourceforge.net/DTD/sodipodi-0.dtd"
   xmlns="http://www.w3.org/2000/svg"
   xmlns:svg="http://www.w3.org/2000/svg">
  <sodipodi:namedview
     id="namedview7"
     pagecolor="#ffffff"
     bordercolor="#666666"
     borderopacity="1.0"
     inkscape:pageshadow="2"
     inkscape:pageopacity="0.0"
     inkscape:pagecheckerboard="0"
     inkscape:document-units="mm"
     showgrid="false"
     inkscape:zoom="0.27464869"
     inkscape:cx="-60.076748"
     inkscape:cy="-249.40953"
     inkscape:window-width="1858"
     inkscape:window-height="1057"
     inkscape:window-x="1912"
     inkscape:window-y="-8"
     inkscape:window-maximized="1"
     inkscape:current-layer="layer1" />
  <defs
     id="defs2" />
  <g
     inkscape:label="Layer 1"
     inkscape:groupmode="layer"
     id="layer1"
     transform="translate(-21.602711,-8.9564823)">
    <path
       style="fill:#000000;stroke-width:0.189273"
       d="m 170.84996,105.8214 c -3.56331,-1.85051 -4.2018,-3.63723 -4.64951,-6.114009 -1.29617,-3.603848 -0.49295,-3.169276 -2.28685,-6.438724 -0.93807,1.799075 -1.76566,-3.099084 -4.48521,-2.245366 -3.881,0.619055 -6.40336,2.405726 -10.69905,3.43424 -4.73668,2.7382 -9.86367,4.64822 -15.35862,5.608449 -5.89554,0.79285 -11.84521,2.37458 -17.91118,1.92339 -3.29896,-0.85257 -8.00114,-1.17827 -11.29966,-3.383299 -1.5877,-4.233208 -2.99493,-8.911491 -2.02694,-13.60021 0.64925,-4.988531 1.76911,-9.037359 2.8554,-13.638099 1.79012,-4.631484 1.95043,-9.092516 3.59928,-13.732138 1.09237,-4.663429 3.28077,-10.438833 6.05131,-14.918151 -0.0533,-4.094113 9.07641,-9.757556 9.60439,-6.919869 -4.48085,2.694058 -6.69864,7.216097 -8.52984,11.865887 -1.22585,3.203071 -3.14336,5.970636 -3.79359,9.514319 -1.43709,4.993032 -3.24489,9.677213 -4.11304,14.842063 -2.51726,6.314816 -3.16128,13.051789 -1.92497,19.789388 1.08658,4.834273 6.75328,5.907456 10.86538,6.29424 6.47395,0.981235 12.93298,-0.768368 19.27125,-1.61491 4.41147,-0.63013 8.40111,-3.915612 12.23897,-4.59813 2.48629,-2.597316 5.53143,-1.609664 7.28641,-3.28997 1.60176,-0.517895 3.81915,-1.915983 5.3148,-2.2192 1.83934,-0.0085 4.14757,0.56689 5.46147,3.49071 2.99714,3.4085 2.74903,9.120504 6.13603,11.853169 1.75923,1.57976 6.00363,-1.47531 7.35941,-2.023399 2.06743,0.444499 1.01331,4.204369 -1.59898,3.821059 0.44929,2.53839 -4.13384,1.98234 -6.1566,2.35064 l -1.21099,-0.0524 z M 34.10821,105.69581 c -5.37142,-2.67473 -6.092909,-8.698574 -7.323993,-13.426179 0.400886,-5.467773 -1.442976,-10.97427 -0.951258,-16.258323 -0.23351,-1.495066 0.157886,-5.215612 -0.378841,-7.468153 -1.135247,-3.526156 -0.664933,-6.708117 -1.43338,-10.294763 -0.04831,-3.277543 -0.819277,-6.974259 -0.696675,-10.26311 -2.067818,-0.821826 0.394266,-4.591491 -0.372852,-6.295768 -1.092438,-2.295708 0.663941,-4.818438 -0.79898,-6.282189 -0.850267,-3.587157 1.033993,-7.043139 -0.54952,-10.420585 1.533697,-3.155165 0.770544,-5.724727 2.014984,-8.713524 0.488678,-2.97747 2.780922,-8.8445296 6.694462,-6.9463012 -1.721965,1.5012012 -1.969928,3.7478802 -3.515048,5.5185612 0.06417,2.91095 -1.454003,6.707326 -1.786191,9.426377 -0.320157,2.872893 -1.405869,7.41776 0.326322,10.611502 -1.141176,4.257933 -0.362886,9.063368 0.382962,13.102763 0.0759,3.741837 -0.256537,6.831387 0.948962,10.621212 -0.262489,5.003214 1.675167,9.890499 1.300811,15.111377 1.381279,3.896718 -0.141687,8.601011 1.822673,12.751534 0.446618,5.122213 1.720758,13.159787 7.008228,14.022169 2.504041,-2.628221 3.812837,-5.696402 5.303685,-9.505199 2.05802,-4.925052 3.854033,-10.013771 6.09177,-14.816877 1.774318,-3.335232 2.73899,-7.808059 4.38529,-11.277232 1.949334,-4.360608 3.981196,-8.391982 5.393301,-13.144127 2.663913,-4.081173 3.687162,-7.541613 6.192825,-11.33155 0.771065,-3.28711 5.014035,-5.112433 5.575282,-7.999199 1.79065,-1.994583 5.388621,-9.716859 8.287708,-5.039884 4.638376,4.672498 -3.721776,0.178736 -4.968761,4.938179 -3.215758,4.45381 -6.52988,8.954864 -9.486331,13.684622 -2.324517,4.406295 -5.293822,9.747467 -7.404725,14.828981 -2.06052,3.471834 -2.494854,9.396876 -4.936374,13.731834 -1.215605,4.310711 -3.641344,6.662327 -3.48942,10.674718 -2.66454,4.913783 -3.114606,10.920727 -6.572746,15.603894 -1.034027,3.00793 -3.654722,5.29878 -7.06417,4.85524 z m 29.669427,-9.995799 c -5.709409,-2.769896 -3.125471,-10.923793 -3.028499,-16.063369 -1.979033,-3.716549 5.142417,-8.827157 4.521775,-3.461172 -1.148744,5.047823 -2.670342,10.977334 -0.282245,15.780831 4.976825,1.980575 9.07392,-5.988399 12.219602,-5.516634 -2.844387,4.410095 -7.719993,9.726312 -13.430633,9.260344 z M 102.06471,81.785557 c -0.33807,-1.750387 0.68225,1.041576 0,0 z m 0.0612,-1.491106 c 1.01133,-1.598826 0.57214,0.578559 0,0 z m 5.53954,-22.061522 c -0.0722,-1.396754 0.822,0.740644 0,0 z"
       id="path1612"
       sodipodi:nodetypes="sssssssscssscssssssssssssssssssssssssscssssssssssssssssscsssssssscssssssss" />
  </g>
</svg>
